<svg version="1.1" xmlns="http://www.w3.org/2000/svg" xmlns:xlink="http://www.w3.org/1999/xlink" 
   class="icon icon-martian-headphones" viewBox="0 0 506 695">
<g class="layer-1">
  <ellipse opacity="0.33" fill="#FFFFFF" cx="244" cy="389" rx="111.5" ry="173.664"/>
  <path fill="#FFFFFF" d="M323,149c0-18.226,14.774-33,33-33s33,14.774,33,33s-14.774,33-33,33S323,167.226,323,149z M356,163
    c7.732,0,14-6.268,14-14s-6.268-14-14-14s-14,6.268-14,14S348.268,163,356,163z"/>
  <path fill="#FFFFFF" d="M98,149c0-18.226,14.774-33,33-33s33,14.774,33,33s-14.774,33-33,33S98,167.226,98,149z M131,163
    c7.732,0,14-6.268,14-14s-6.268-14-14-14s-14,6.268-14,14S123.268,163,131,163z"/>
  <circle fill="#FFFFFF" cx="348" cy="364" r="60"/>
  <circle fill="#FFFFFF" cx="141" cy="364" r="60"/>
</g>
<g class="layer-2">
  <g>
    <g>
      <circle cx="224.235" cy="414.403" r="10.887"/>
      <circle cx="263.348" cy="414.403" r="10.886"/>
    </g>
    <rect x="216.458" y="481" width="54.667" height="19.334"/>
    <g>
      <path d="M113.936,317.772c-3.703,2.268-7.111,4.97-10.155,8.035l3.151,2.818c2.739-2.733,5.794-5.15,9.106-7.189L113.936,317.772
        z"/>
      <path d="M309.281,325.807l3.15,2.818c2.739-2.733,5.795-5.15,9.106-7.189l-2.103-3.664
        C315.733,320.041,312.324,322.742,309.281,325.807z"/>
      <path d="M416.31,271.985c0-36.062-11.071-69.536-29.991-97.22c5.579-6.731,8.934-15.372,8.934-24.797
        c0-21.477-17.41-38.887-38.887-38.887c-10.546,0-20.105,4.205-27.11,11.021c-25.196-14.397-54.366-22.635-85.464-22.635
        c-31.051,0-60.182,8.212-85.352,22.57c-7.002-6.795-16.545-10.985-27.073-10.985c-21.476,0-38.887,17.41-38.887,38.887
        c0,9.385,3.325,17.993,8.861,24.712c-18.967,27.705-30.067,61.222-30.067,97.333c0,23.937,4.885,46.728,13.695,67.448
        c-3.216,7.506-5.002,15.771-5.002,24.454c0,28.032,18.56,51.724,44.06,59.474c2.767,87.529,21.128,154.14,120.064,154.14
        c98.769,0,117.236-66.383,120.051-153.689c26.31-7.236,45.644-31.315,45.644-59.924c0-9.657-2.202-18.801-6.133-26.954
        C411.807,316.884,416.31,294.962,416.31,271.985z M356.365,121.031c15.981,0,28.937,12.955,28.937,28.937
        c0,15.98-12.955,28.936-28.937,28.936c-15.98,0-28.936-12.955-28.936-28.936C327.43,133.986,340.385,121.031,356.365,121.031z
         M131.366,121.003c15.981,0,28.937,12.955,28.937,28.937c0,15.98-12.955,28.936-28.937,28.936
        c-15.98,0-28.936-12.955-28.936-28.936C102.431,133.958,115.386,121.003,131.366,121.003z M87.257,347.348
        c4.63-15.382,15.545-28.038,29.767-34.98l3.485,10.487c-2.965,1.565-5.745,3.434-8.285,5.58l2.202,2.883
        c2.228-1.896,4.655-3.563,7.242-4.976l9.508,28.61L87.257,347.348z M243.884,547.93c-75.734,0-88.125-52.699-90.071-122.996
        c28.74-5.471,50.472-30.715,50.472-61.047c0-28.126-18.688-51.879-44.321-59.548c9.27-41.146,31.444-68.166,83.92-68.166
        c52.725,0,74.857,27.282,84.046,68.759c-24.673,8.24-42.464,31.513-42.464,58.955c0,29.634,20.743,54.407,48.498,60.635
        C332.055,495.024,319.766,547.93,243.884,547.93z M319.927,331.317c2.228-1.896,4.655-3.563,7.241-4.976l9.508,28.61
        l-43.918-7.604c4.63-15.382,15.545-28.038,29.767-34.98l3.485,10.487c-2.965,1.565-5.744,3.434-8.285,5.58L319.927,331.317z
         M357.539,302.52C345.686,244.995,315.614,206,244.091,206c-71.639,0-101.693,39.122-113.506,96.799
        c-16.413,3.084-30.547,12.623-39.676,25.876c-6.55-17.658-10.139-36.754-10.139-56.691c0-33.58,10.158-64.784,27.562-90.719
        c6.448,4.75,14.412,7.561,23.035,7.561c21.477,0,38.887-17.41,38.887-38.887c0-7.484-2.119-14.47-5.782-20.402
        c23.478-13.102,50.524-20.575,79.32-20.575c28.846,0,55.933,7.505,79.439,20.649c-3.646,5.921-5.752,12.892-5.752,20.355
        c0,21.477,17.41,38.887,38.887,38.887c8.585,0,16.516-2.788,22.948-7.499c17.367,25.917,27.501,57.088,27.501,90.629
        c0,19.181-3.322,37.584-9.406,54.676C387.949,314.032,373.797,305.126,357.539,302.52z"/>
      <path d="M131.366,168.286c10.132,0,18.346-8.214,18.346-18.346s-8.214-18.346-18.346-18.346s-18.346,8.214-18.346,18.346
        S121.234,168.286,131.366,168.286z M131.366,141.672c4.565,0,8.268,3.701,8.268,8.268s-3.702,8.268-8.268,8.268
        c-4.566,0-8.269-3.701-8.269-8.268S126.8,141.672,131.366,141.672z"/>
      <path d="M356.365,168.314c10.133,0,18.346-8.214,18.346-18.346s-8.213-18.346-18.346-18.346s-18.346,8.214-18.346,18.346
        S346.232,168.314,356.365,168.314z M356.365,141.7c4.565,0,8.268,3.701,8.268,8.268s-3.702,8.268-8.268,8.268
        c-4.566,0-8.269-3.701-8.269-8.268S351.799,141.7,356.365,141.7z"/>
    </g>
  </g>
</g>
</svg>
